<svg width="93" height="96" viewBox="0 0 93 96" fill="none" xmlns="http://www.w3.org/2000/svg">
<circle cx="8.5" cy="19.5" r="8.5" fill="black"/>
<circle cx="8.5" cy="8.5" r="8.5" fill="black"/>
<circle cx="83.5" cy="19.5" r="8.5" fill="black"/>
<circle cx="83.5" cy="8.5" r="8.5" fill="black"/>
<rect x="10" y="7" width="74" height="14" fill="black"/>
<rect x="10" y="7" width="74" height="14" fill="black"/>
<circle cx="8.5" cy="53.5" r="8.5" fill="black"/>
<circle cx="8.5" cy="42.5" r="8.5" fill="black"/>
<circle cx="83.5" cy="53.5" r="8.5" fill="black"/>
<circle cx="83.5" cy="42.5" r="8.5" fill="black"/>
<rect x="10" y="41" width="74" height="14" fill="black"/>
<rect x="10" y="41" width="74" height="14" fill="black"/>
<circle cx="9.5" cy="87.5" r="8.5" fill="black"/>
<circle cx="9.5" cy="76.5" r="8.5" fill="black"/>
<circle cx="84.5" cy="87.5" r="8.5" fill="black"/>
<circle cx="84.5" cy="76.5" r="8.5" fill="black"/>
<rect x="11" y="75" width="74" height="14" fill="black"/>
<rect x="11" y="75" width="74" height="14" fill="black"/>
</svg>
